PathFileType	4	(x/y/z)	S02_P20_T25
DataRate	CameraRate	NumFrames	NumMarkers	Units	OrigDataRate	OrigDataStartFrame	OrigNumFrames
240	240	5	51	mm	240	91	362
Frame#	Time	Sternum			R.Acromium			L.Acromium			Top.Head			R.ASIS			L.ASIS			R.PSIS			L.PSIS			R.Great.Tro			L.Great.Tro			R.Iliac.Crest			L.Iliac.Crest			V.Sacral			R.Thigh.Upper.Post			R.Thigh.Lower.Ant			R.Thigh.Lower.Post			R.Thigh.Upper.Ant			R.Knee.Lat			R.Knee.Med			R.Shank.Upper.Post			R.Shank.Lower.Ant			R.Shank.Lower.Post			R.Shank.Upper.Ant			R.Ankle.Lat			R.Ankle.Med			R.Heel.Upper			R.Heel.Med			R.Heel.Lat			R.Toe.Lat			R.Toe.Med			R.Toe.Tip			L.Thigh.Upper.Post			L.Thigh.Lower.Ant			L.Thigh.Lower.Post			L.Thigh.Upper.Ant			L.Knee.Lat			L.Knee.Med			L.Shank.Upper.Post			L.Shank.Lower.Ant			L.Shank.Lower.Post			L.Shank.Upper.Ant			L.Ankle.Lat			L.Ankle.Med			L.Heel.Upper			L.Heel.Med			L.Heel.Lat			L.Toe.Lat			L.Toe.Med			L.Toe.Tip			Cervical.Spine			Back			
		X1	Y1	Z1	X2	Y2	Z2	X3	Y3	Z3	X4	Y4	Z4	X5	Y5	Z5	X6	Y6	Z6	X7	Y7	Z7	X8	Y8	Z8	X9	Y9	Z9	X10	Y10	Z10	X11	Y11	Z11	X12	Y12	Z12	X13	Y13	Z13	X14	Y14	Z14	X15	Y15	Z15	X16	Y16	Z16	X17	Y17	Z17	X18	Y18	Z18	X19	Y19	Z19	X20	Y20	Z20	X21	Y21	Z21	X22	Y22	Z22	X23	Y23	Z23	X24	Y24	Z24	X25	Y25	Z25	X26	Y26	Z26	X27	Y27	Z27	X28	Y28	Z28	X29	Y29	Z29	X30	Y30	Z30	X31	Y31	Z31	X32	Y32	Z32	X33	Y33	Z33	X34	Y34	Z34	X35	Y35	Z35	X36	Y36	Z36	X37	Y37	Z37	X38	Y38	Z38	X39	Y39	Z39	X40	Y40	Z40	X41	Y41	Z41	X42	Y42	Z42	X43	Y43	Z43	X44	Y44	Z44	X45	Y45	Z45	X46	Y46	Z46	X47	Y47	Z47	X48	Y48	Z48	X49	Y49	Z49	X50	Y50	Z50	X51	Y51	Z51	

91	0.375	-812.08	1116.6	326.14	-937.67	1354.4	455.98	-909.71	1351.5	163.42	-834.04	1628.5	300.99	-857.64	946.98	417.5	-844.1	926.52	210.36	-1063.6	980.41	365.5	-1071.4	985.73	293.07	-914.83	835.28	517.19	-981.43	843.38	129.02	-955.13	993.53	474.6	-966.23	978.4	146.35	-1093.1	934.78	324.45	-818.48	649.69	510.83	-730.92	603.62	483.53	-792.59	564.94	491.82	-760.8	686.91	499.49	-747.92	501.38	480.49	-731.28	494.78	339.43	-861.11	319.33	449.65	-804.7	224.92	441.2	-869.48	246.96	440.18	-793.87	291.73	458.4	-871.54	148.72	428.97	-846.06	166.98	346.45	-925.36	156.29	366.81	-916.21	126.22	335.72	-935.63	121.25	396.95	-791.52	63.291	453.42	-746.59	62.693	351.62	-702.9	68.648	415.27	-1038.3	622.55	162.06	-973.78	532.89	168.84	-1051.7	535.34	185.92	-967.62	625.49	145.84	-1005.1	455.08	181.95	-1008.2	456.14	321.39	-1113.4	303.52	186.03	-1063.1	205.01	205.47	-1133.3	230.61	207.63	-1055.4	279.58	187.21	-1124.5	110.17	221.57	-1111.9	106.74	303.07	-1187.1	79.398	255.44	-1180.2	53.803	288.49	-1183	51.916	226.92	-1018.1	34.819	197.99	-996.55	44.203	307.51	-934.78	55.889	260.43	-995.34	1411.6	301.21	-1070	1158.8	300.91
92	0.37917	-806.74	1116.2	326.16	-932.43	1353.8	456.02	-904.12	1351	163.48	-828.67	1627.9	301.19	-852.13	946.49	417.47	-839.02	925.87	210.36	-1058.1	979.93	365.99	-1066.4	985.23	293.56	-908.73	835.31	517.43	-976.81	843.06	129.09	-949.53	993.01	474.8	-961.24	977.78	146.63	-1087.9	934.27	325.06	-812.73	649.29	510.24	-725.22	603.39	482.55	-786.85	564.6	490.9	-755.13	686.59	498.85	-741.8	501.36	479.36	-726.18	494.73	338.42	-850.08	316.02	449.45	-790.88	223.3	440.85	-856.32	243.42	440.01	-781.99	290.42	457.92	-855.67	145.01	428.9	-830.8	163.78	346.31	-909.77	150.76	366.78	-899.7	120.87	335.8	-918.95	115.51	397.01	-773.11	62.138	453.59	-728.23	62.57	351.72	-684.72	70.001	415.33	-1035.6	622.93	162.3	-971.78	532.73	168.82	-1049.6	535.82	186.12	-964.89	625.27	145.86	-1003.7	455.12	181.93	-1006.7	456.06	321.32	-1112.5	303.99	186.08	-1062.6	205.28	205.5	-1132.6	231.15	207.7	-1054.5	279.83	187.22	-1124.2	110.53	221.63	-1111.6	107.08	303.12	-1186.9	79.868	255.51	-1180.1	54.322	288.57	-1183	52.411	227.03	-1018.1	34.82	198.01	-996.49	44.167	307.52	-934.72	55.753	260.42	-989.82	1411	301.23	-1064.6	1158.3	300.7
93	0.38333	-801.38	1115.7	326.2	-927.17	1353.1	456.07	-898.51	1350.4	163.56	-823.29	1627.3	301.41	-846.6	945.9	417.47	-833.92	925.14	210.4	-1052.6	979.38	366.47	-1061.4	984.67	294.04	-902.63	835.24	517.69	-972.18	842.71	129.14	-943.92	992.41	475.01	-956.22	977.1	146.92	-1082.7	933.7	325.66	-807.01	648.78	509.65	-719.6	603	481.53	-781.17	564.13	490.01	-749.5	686.14	498.13	-735.78	501.2	478.23	-721.25	494.49	337.39	-839.07	312.71	449.27	-777.15	221.76	440.49	-843.17	239.95	439.85	-770.19	289.15	457.44	-839.82	141.43	428.83	-815.55	160.66	346.17	-894.17	145.35	366.74	-883.16	115.67	335.88	-902.23	109.94	397.07	-754.81	61.184	453.76	-710.02	62.621	351.81	-666.73	71.527	415.38	-1032.8	623.27	162.54	-969.69	532.53	168.78	-1047.5	536.26	186.33	-962.1	625.02	145.87	-1002.1	455.13	181.91	-1005.2	455.98	321.25	-1111.5	304.45	186.13	-1062	205.54	205.53	-1131.9	231.69	207.77	-1053.7	280.06	187.23	-1123.9	110.91	221.68	-1111.3	107.42	303.17	-1186.7	80.344	255.57	-1179.9	54.849	288.66	-1182.9	52.913	227.14	-1018	34.82	198.02	-996.44	44.131	307.53	-934.66	55.616	260.42	-984.3	1410.3	301.27	-1059.1	1157.6	300.51
94	0.3875	-795.99	1115.1	326.26	-921.89	1352.4	456.13	-892.87	1349.8	163.65	-817.91	1626.6	301.64	-841.05	945.23	417.49	-828.81	924.33	210.45	-1047.1	978.77	366.95	-1056.5	984.04	294.52	-896.54	835.07	517.94	-967.55	842.35	129.16	-938.3	991.74	475.23	-951.17	976.36	147.19	-1077.5	933.08	326.26	-801.31	648.17	509.07	-714.04	602.46	480.48	-775.55	563.53	489.15	-743.89	685.56	497.35	-729.84	500.88	477.12	-716.46	494.05	336.33	-828.09	309.44	449.11	-763.54	220.29	440.11	-830.07	236.58	439.71	-758.5	287.92	456.95	-824.04	138	428.75	-800.35	157.65	346.04	-878.58	140.08	366.71	-866.65	110.63	335.96	-885.52	104.55	397.15	-736.65	60.429	453.93	-692	62.848	351.9	-648.96	73.224	415.4	-1029.9	623.56	162.77	-967.51	532.31	168.75	-1045.2	536.66	186.53	-959.24	624.74	145.88	-1000.5	455.11	181.88	-1003.5	455.88	321.19	-1110.5	304.9	186.18	-1061.3	205.78	205.55	-1131.2	232.23	207.82	-1052.7	280.27	187.24	-1123.6	111.28	221.72	-1110.9	107.77	303.22	-1186.5	80.826	255.62	-1179.8	55.384	288.73	-1182.9	53.424	227.23	-1018	34.817	198.04	-996.38	44.094	307.55	-934.6	55.478	260.41	-978.77	1409.6	301.32	-1053.7	1156.9	300.35
95	0.39167	-790.59	1114.4	326.33	-916.59	1351.6	456.2	-887.22	1349.1	163.75	-812.53	1625.8	301.88	-835.47	944.49	417.53	-823.68	923.44	210.53	-1041.6	978.09	367.42	-1051.4	983.35	294.98	-890.45	834.8	518.2	-962.92	841.96	129.17	-932.66	990.99	475.45	-946.1	975.56	147.45	-1072.3	932.41	326.83	-795.61	647.45	508.5	-708.54	601.78	479.39	-769.97	562.8	488.35	-738.31	684.86	496.49	-723.98	500.42	476.04	-711.82	493.42	335.24	-817.15	306.2	448.98	-750.08	218.91	439.71	-817.03	233.29	439.59	-746.94	286.72	456.46	-808.34	134.73	428.66	-785.23	154.76	345.91	-863.05	134.97	366.68	-850.2	105.77	336.04	-868.86	99.34	397.23	-718.68	59.868	454.08	-674.21	63.249	351.95	-631.45	75.086	415.39	-1026.9	623.8	162.98	-965.23	532.06	168.71	-1042.9	537.01	186.73	-956.3	624.43	145.88	-998.7	455.07	181.86	-1001.7	455.76	321.14	-1109.5	305.34	186.24	-1060.6	206.02	205.56	-1130.4	232.78	207.86	-1051.8	280.45	187.25	-1123.3	111.66	221.76	-1110.6	108.12	303.25	-1186.3	81.317	255.66	-1179.7	55.928	288.79	-1182.8	53.943	227.31	-1018	34.813	198.05	-996.32	44.057	307.55	-934.55	55.34	260.41	-973.24	1408.8	301.38	-1048.2	1156.2	300.2
